ExpletusSans-Regular.ufo
<glyph name="numbersign" format="2">
  <advance width="1788"/>
  <unicode hex="0023"/>
  <outline>
    <contour>
      <point x="326" y="0" type="line"/>
      <point x="478" y="0" type="line" name="hr01"/>
      <point x="774" y="948" type="line"/>
      <point x="1200" y="948" type="line"/>
      <point x="1234" y="948" type="line"/>
      <point x="1224" y="916" type="line"/>
      <point x="1082" y="460" type="line"/>
      <point x="836" y="460" type="line" smooth="yes"/>
      <point x="742" y="460"/>
      <point x="686" y="406"/>
      <point x="652" y="330" type="curve"/>
      <point x="1016" y="330" type="line"/>
      <point x="1042" y="330" type="line"/>
      <point x="1034" y="304" type="line"/>
      <point x="940" y="0" type="line"/>
      <point x="1092" y="0" type="line" name="hr08"/>
      <point x="1194" y="330" type="line"/>
      <point x="1436" y="330" type="line" name="hr07"/>
      <point x="1452" y="460" type="line"/>
      <point x="1234" y="460" type="line"/>
      <point x="1388" y="948" type="line"/>
      <point x="1630" y="948" type="line"/>
      <point x="1646" y="1078" type="line"/>
      <point x="1428" y="1078" type="line" name="hr06"/>
      <point x="1530" y="1404" type="line"/>
      <point x="1378" y="1404" type="line" name="hr05"/>
      <point x="1276" y="1078" type="line"/>
      <point x="814" y="1078" type="line" name="hr04"/>
      <point x="916" y="1404" type="line"/>
      <point x="764" y="1404" type="line" name="hr03"/>
      <point x="662" y="1078" type="line"/>
      <point x="414" y="1078" type="line"/>
      <point x="398" y="948" type="line"/>
      <point x="578" y="948" type="line"/>
      <point x="620" y="948" type="line"/>
      <point x="610" y="916" type="line"/>
      <point x="468" y="460" type="line"/>
      <point x="220" y="460" type="line"/>
      <point x="204" y="330" type="line"/>
      <point x="400" y="330" type="line"/>
      <point x="428" y="330" type="line" name="hr02"/>
      <point x="420" y="304" type="line"/>
    </contour>
  </outline>
</glyph>
<glyph name="ampersand" format="2">
  <advance width="1522"/>
  <unicode hex="0026"/>
  <outline>
    <contour>
      <point x="666" y="-22" type="curve" smooth="yes"/>
      <point x="812" y="-22"/>
      <point x="922" y="26"/>
      <point x="1026" y="102" type="curve"/>
      <point x="970" y="156"/>
      <point x="898" y="168"/>
      <point x="810" y="140" type="curve" smooth="yes"/>
      <point x="770" y="128"/>
      <point x="742" y="122"/>
      <point x="714" y="122" type="curve" smooth="yes" name="hr02"/>
      <point x="548" y="122"/>
      <point x="470" y="252"/>
      <point x="494" y="444" type="curve" smooth="yes"/>
      <point x="506" y="554"/>
      <point x="566" y="634"/>
      <point x="644" y="700" type="curve"/>
      <point x="664" y="716" type="line"/>
      <point x="676" y="700" type="line"/>
      <point x="1188" y="0" type="line"/>
      <point x="1424" y="0" type="line" name="hr01"/>
      <point x="1206" y="292" type="line"/>
      <point x="1306" y="426"/>
      <point x="1372" y="582"/>
      <point x="1430" y="758" type="curve"/>
      <point x="1286" y="758" type="line"/>
      <point x="1252" y="636"/>
      <point x="1208" y="540"/>
      <point x="1138" y="434" type="curve"/>
      <point x="1122" y="410" type="line"/>
      <point x="1104" y="434" type="line"/>
      <point x="828" y="808" type="line"/>
      <point x="734" y="940"/>
      <point x="674" y="1020"/>
      <point x="690" y="1142" type="curve" smooth="yes"/>
      <point x="702" y="1250"/>
      <point x="802" y="1330"/>
      <point x="926" y="1330" type="curve" smooth="yes"/>
      <point x="998" y="1330"/>
      <point x="1096" y="1314"/>
      <point x="1162" y="1280" type="curve"/>
      <point x="1226" y="1406" type="line"/>
      <point x="1144" y="1452"/>
      <point x="1036" y="1474"/>
      <point x="948" y="1474" type="curve" smooth="yes"/>
      <point x="704" y="1474"/>
      <point x="542" y="1322"/>
      <point x="518" y="1124" type="curve" smooth="yes"/>
      <point x="506" y="1032"/>
      <point x="532" y="934"/>
      <point x="590" y="832" type="curve"/>
      <point x="448" y="734"/>
      <point x="318" y="600"/>
      <point x="296" y="418" type="curve" smooth="yes"/>
      <point x="270" y="196"/>
      <point x="396" y="-22"/>
    </contour>
  </outline>
</glyph>
<glyph name="plus" format="2">
  <advance width="1136"/>
  <unicode hex="002B"/>
  <outline>
    <contour>
      <point x="502" y="124" type="line"/>
      <point x="648" y="124" type="line"/>
      <point x="700" y="546" type="line"/>
      <point x="1096" y="546" type="line"/>
      <point x="1112" y="674" type="line"/>
      <point x="716" y="674" type="line"/>
      <point x="768" y="1092" type="line"/>
      <point x="622" y="1092" type="line"/>
      <point x="570" y="674" type="line"/>
      <point x="176" y="674" type="line" name="hr00"/>
      <point x="160" y="546" type="line"/>
      <point x="554" y="546" type="line"/>
    </contour>
  </outline>
</glyph>
<glyph name="four" format="2">
  <advance width="1190"/>
  <unicode hex="0034"/>
  <outline>
    <contour>
      <point x="744" y="0" type="line"/>
      <point x="918" y="0" type="line"/>
      <point x="956" y="312" type="line"/>
      <point x="1116" y="312" type="line"/>
      <point x="1132" y="454" type="line"/>
      <point x="972" y="454" type="line"/>
      <point x="1090" y="1402" type="line"/>
      <point x="916" y="1402" type="line" name="hr00"/>
      <point x="144" y="434" type="line"/>
      <point x="130" y="312" type="line"/>
      <point x="712" y="312" type="line"/>
      <point x="694" y="356"/>
      <point x="642" y="456"/>
      <point x="536" y="456" type="curve"/>
      <point x="352" y="456" type="line"/>
      <point x="320" y="452" type="line"/>
      <point x="346" y="474" type="line"/>
      <point x="852" y="1096" type="line"/>
      <point x="888" y="1146" type="line"/>
      <point x="878" y="1092" type="line"/>
    </contour>
  </outline>
</glyph>
<glyph name="equal" format="2">
  <advance width="1212"/>
  <unicode hex="003D"/>
  <outline>
    <contour>
      <point x="230" y="794" type="line"/>
      <point x="1174" y="794" type="line"/>
      <point x="1192" y="930" type="line"/>
      <point x="248" y="930" type="line"/>
    </contour>
    <contour>
      <point x="176" y="352" type="line"/>
      <point x="1120" y="352" type="line"/>
      <point x="1136" y="488" type="line"/>
      <point x="192" y="488" type="line" name="hr00"/>
    </contour>
  </outline>
</glyph>
<glyph name="question" format="2">
  <advance width="1166"/>
  <unicode hex="003F"/>
  <outline>
    <contour>
      <point x="454" y="370" type="curve"/>
      <point x="598" y="370" type="line"/>
      <point x="644" y="736"/>
      <point x="1044" y="840"/>
      <point x="1086" y="1174" type="curve" smooth="yes"/>
      <point x="1106" y="1342"/>
      <point x="964" y="1474"/>
      <point x="734" y="1474" type="curve" smooth="yes" name="hr00"/>
      <point x="624" y="1474"/>
      <point x="516" y="1458"/>
      <point x="386" y="1392" type="curve"/>
      <point x="420" y="1258" type="line"/>
      <point x="532" y="1316"/>
      <point x="620" y="1330"/>
      <point x="696" y="1330" type="curve"/>
      <point x="820" y="1330"/>
      <point x="898" y="1250"/>
      <point x="886" y="1144" type="curve" smooth="yes"/>
      <point x="852" y="876"/>
      <point x="508" y="804"/>
    </contour>
    <contour>
      <point x="476" y="-30" type="curve" smooth="yes"/>
      <point x="546" y="-30"/>
      <point x="604" y="20"/>
      <point x="612" y="88" type="curve" smooth="yes"/>
      <point x="620" y="158"/>
      <point x="574" y="210"/>
      <point x="504" y="210" type="curve" smooth="yes"/>
      <point x="436" y="210"/>
      <point x="378" y="158"/>
      <point x="370" y="88" type="curve" smooth="yes"/>
      <point x="362" y="20"/>
      <point x="408" y="-30"/>
    </contour>
  </outline>
</glyph>
<glyph name="at" format="2">
  <advance width="1838"/>
  <unicode hex="0040"/>
  <outline>
    <contour>
      <point x="864" y="-244" type="curve" smooth="yes"/>
      <point x="996" y="-244"/>
      <point x="1090" y="-232"/>
      <point x="1288" y="-174" type="curve"/>
      <point x="1260" y="-64" type="line"/>
      <point x="1088" y="-118"/>
      <point x="994" y="-126"/>
      <point x="878" y="-126" type="curve" smooth="yes"/>
      <point x="564" y="-126"/>
      <point x="330" y="84"/>
      <point x="382" y="514" type="curve" smooth="yes"/>
      <point x="436" y="946"/>
      <point x="722" y="1158"/>
      <point x="1064" y="1158" type="curve" smooth="yes"/>
      <point x="1408" y="1158"/>
      <point x="1604" y="964"/>
      <point x="1562" y="626" type="curve" smooth="yes"/>
      <point x="1542" y="472"/>
      <point x="1468" y="358"/>
      <point x="1298" y="256" type="curve"/>
      <point x="1266" y="232" type="line" name="hr00"/>
      <point x="1272" y="280" type="line"/>
      <point x="1310" y="602" type="line"/>
      <point x="1336" y="810"/>
      <point x="1236" y="932"/>
      <point x="1038" y="932" type="curve" smooth="yes"/>
      <point x="954" y="932"/>
      <point x="874" y="920"/>
      <point x="768" y="878" type="curve"/>
      <point x="796" y="776" type="line"/>
      <point x="870" y="804"/>
      <point x="940" y="816"/>
      <point x="996" y="816" type="curve" smooth="yes"/>
      <point x="1138" y="816"/>
      <point x="1182" y="734"/>
      <point x="1166" y="612" type="curve"/>
      <point x="1130" y="320" type="line"/>
      <point x="1058" y="238"/>
      <point x="974" y="212"/>
      <point x="906" y="212" type="curve" smooth="yes"/>
      <point x="820" y="212"/>
      <point x="766" y="258"/>
      <point x="774" y="324" type="curve" smooth="yes"/>
      <point x="782" y="386"/>
      <point x="832" y="434"/>
      <point x="952" y="450" type="curve" smooth="yes"/>
      <point x="1034" y="460"/>
      <point x="1072" y="542"/>
      <point x="1080" y="578" type="curve"/>
      <point x="778" y="546"/>
      <point x="646" y="478"/>
      <point x="626" y="316" type="curve" smooth="yes"/>
      <point x="610" y="184"/>
      <point x="700" y="94"/>
      <point x="870" y="94" type="curve" smooth="yes"/>
      <point x="942" y="94"/>
      <point x="1012" y="106"/>
      <point x="1100" y="184" type="curve"/>
      <point x="1124" y="224" type="line"/>
      <point x="1124" y="186" type="line"/>
      <point x="1132" y="152"/>
      <point x="1140" y="128"/>
      <point x="1168" y="112" type="curve"/>
      <point x="1462" y="164"/>
      <point x="1674" y="340"/>
      <point x="1710" y="626" type="curve" smooth="yes"/>
      <point x="1760" y="1038"/>
      <point x="1492" y="1276"/>
      <point x="1080" y="1276" type="curve" smooth="yes"/>
      <point x="676" y="1276"/>
      <point x="294" y="1012"/>
      <point x="232" y="514" type="curve" smooth="yes"/>
      <point x="166" y="-22"/>
      <point x="456" y="-244"/>
    </contour>
  </outline>
</glyph>
<glyph name="C" format="2">
  <advance width="1304"/>
  <unicode hex="0043"/>
  <anchor x="734" y="0" name="bottom"/>
  <anchor x="954" y="1454" name="top"/>
  <outline>
    <contour>
      <point x="864" y="-24" type="curve" smooth="yes" name="hr00"/>
      <point x="976" y="-24"/>
      <point x="1098" y="2"/>
      <point x="1230" y="68" type="curve"/>
      <point x="1194" y="198" type="line"/>
      <point x="1076" y="142"/>
      <point x="974" y="120"/>
      <point x="882" y="120" type="curve"/>
      <point x="606" y="120"/>
      <point x="392" y="362"/>
      <point x="436" y="724" type="curve" smooth="yes"/>
      <point x="486" y="1132"/>
      <point x="754" y="1334"/>
      <point x="1030" y="1334" type="curve" smooth="yes"/>
      <point x="1122" y="1334"/>
      <point x="1216" y="1320"/>
      <point x="1326" y="1282" type="curve"/>
      <point x="1394" y="1412" type="line"/>
      <point x="1278" y="1458"/>
      <point x="1160" y="1480"/>
      <point x="1048" y="1480" type="curve" smooth="yes"/>
      <point x="638" y="1480"/>
      <point x="286" y="1172"/>
      <point x="232" y="724" type="curve" smooth="yes"/>
      <point x="176" y="262"/>
      <point x="454" y="-24"/>
    </contour>
  </outline>
</glyph>
<glyph name="E" format="2">
  <advance width="1154"/>
  <unicode hex="0045"/>
  <anchor x="608" y="0" name="bottom"/>
  <anchor x="1036" y="0" name="ogonek"/>
  <anchor x="778" y="1454" name="top"/>
  <anchor x="156" y="1454" name="topleft"/>
  <outline>
    <contour>
      <point x="178" y="0" type="line"/>
      <point x="1036" y="0" type="line"/>
      <point x="1052" y="144" type="line"/>
      <point x="384" y="144" type="line"/>
      <point x="528" y="1310" type="line"/>
      <point x="1166" y="1310" type="line"/>
      <point x="1184" y="1454" type="line"/>
      <point x="356" y="1454" type="line" name="hr00"/>
    </contour>
    <contour>
      <point x="528" y="692" type="curve"/>
      <point x="1022" y="692" type="line"/>
      <point x="1040" y="832" type="line"/>
      <point x="718" y="832" type="line"/>
      <point x="622" y="832"/>
      <point x="566" y="768"/>
    </contour>
  </outline>
</glyph>
<glyph name="G" format="2">
  <advance width="1290"/>
  <unicode hex="0047"/>
  <anchor x="742" y="0" name="bottom"/>
  <anchor x="922" y="1454" name="top"/>
  <outline>
    <contour>
      <point x="816" y="-24" type="curve" smooth="yes"/>
      <point x="930" y="-24"/>
      <point x="1082" y="-2"/>
      <point x="1236" y="74" type="curve"/>
      <point x="1310" y="674" type="line"/>
      <point x="1126" y="674" type="line"/>
      <point x="1062" y="154" type="line"/>
      <point x="970" y="126"/>
      <point x="892" y="120"/>
      <point x="834" y="120" type="curve" smooth="yes"/>
      <point x="558" y="120"/>
      <point x="312" y="318"/>
      <point x="362" y="726" type="curve" smooth="yes"/>
      <point x="412" y="1136"/>
      <point x="706" y="1334"/>
      <point x="982" y="1334" type="curve" smooth="yes" name="hr00"/>
      <point x="1074" y="1334"/>
      <point x="1184" y="1324"/>
      <point x="1318" y="1262" type="curve"/>
      <point x="1386" y="1392" type="line"/>
      <point x="1254" y="1458"/>
      <point x="1114" y="1480"/>
      <point x="1000" y="1480" type="curve" smooth="yes"/>
      <point x="590" y="1480"/>
      <point x="214" y="1176"/>
      <point x="158" y="726" type="curve" smooth="yes"/>
      <point x="100" y="256"/>
      <point x="406" y="-24"/>
    </contour>
  </outline>
</glyph>
<glyph name="H" format="2">
  <advance width="1460"/>
  <unicode hex="0048"/>
  <anchor x="732" y="0" name="bottom"/>
  <anchor x="822" y="728" name="center"/>
  <anchor x="910" y="1454" name="top"/>
  <anchor x="156" y="1454" name="topleft"/>
  <outline>
    <contour>
      <point x="1096" y="0" type="line"/>
      <point x="1286" y="0" type="line"/>
      <point x="1464" y="1454" type="line"/>
      <point x="1274" y="1454" type="line"/>
      <point x="1198" y="832" type="line" name="hr00"/>
      <point x="716" y="832" type="line"/>
      <point x="622" y="832"/>
      <point x="566" y="768"/>
      <point x="528" y="692" type="curve"/>
      <point x="1180" y="692" type="line"/>
    </contour>
    <contour>
      <point x="178" y="0" type="line"/>
      <point x="368" y="0" type="line"/>
      <point x="546" y="1454" type="line"/>
      <point x="356" y="1454" type="line"/>
    </contour>
  </outline>
</glyph>
<glyph name="J" format="2">
  <advance width="688"/>
  <unicode hex="004A"/>
  <anchor x="238" y="-380" name="bottom"/>
  <anchor x="604" y="1454" name="top"/>
  <outline>
    <contour>
      <point x="18" y="-416" type="line"/>
      <point x="320" y="-228"/>
      <point x="510" y="-94"/>
      <point x="552" y="256" type="curve" name="hr00"/>
      <point x="700" y="1454" type="line"/>
      <point x="508" y="1454" type="line"/>
      <point x="360" y="256" type="line"/>
      <point x="322" y="-58"/>
      <point x="170" y="-148"/>
      <point x="-48" y="-314" type="curve"/>
    </contour>
  </outline>
</glyph>
<glyph name="N" format="2">
  <advance width="1498"/>
  <unicode hex="004E"/>
  <anchor x="752" y="0" name="bottom"/>
  <anchor x="940" y="1454" name="top"/>
  <outline>
    <contour>
      <point x="208" y="0" type="line"/>
      <point x="370" y="0" type="line"/>
      <point x="512" y="1162" type="line"/>
      <point x="516" y="1230" type="line"/>
      <point x="536" y="1162" type="line" name="hr00"/>
      <point x="1122" y="0" type="line"/>
      <point x="1292" y="0" type="line"/>
      <point x="1470" y="1454" type="line"/>
      <point x="1302" y="1454" type="line"/>
      <point x="1164" y="330" type="line"/>
      <point x="1158" y="260" type="line"/>
      <point x="1144" y="326" type="line"/>
      <point x="576" y="1454" type="line"/>
      <point x="386" y="1454" type="line"/>
    </contour>
  </outline>
</glyph>
<glyph name="Q" format="2">
  <advance width="1576"/>
  <unicode hex="0051"/>
  <anchor x="774" y="0" name="bottom"/>
  <anchor x="958" y="1454" name="top"/>
  <outline>
    <contour>
      <point x="770" y="-28" type="curve"/>
      <point x="878" y="-28"/>
      <point x="986" y="6"/>
      <point x="1106" y="86" type="curve"/>
      <point x="1068" y="134"/>
      <point x="980" y="152"/>
      <point x="908" y="134" type="curve" smooth="yes"/>
      <point x="866" y="124"/>
      <point x="836" y="118"/>
      <point x="788" y="118" type="curve"/>
      <point x="526" y="118"/>
      <point x="350" y="356"/>
      <point x="396" y="728" type="curve" smooth="yes"/>
      <point x="442" y="1104"/>
      <point x="688" y="1338"/>
      <point x="944" y="1338" type="curve" smooth="yes"/>
      <point x="1202" y="1338"/>
      <point x="1382" y="1104"/>
      <point x="1336" y="728" type="curve"/>
      <point x="1322" y="612"/>
      <point x="1290" y="492"/>
      <point x="1218" y="384" type="curve"/>
      <point x="1198" y="336" type="line"/>
      <point x="1176" y="374" type="line"/>
      <point x="1002" y="582" type="line"/>
      <point x="882" y="476" type="line"/>
      <point x="1314" y="-26" type="line"/>
      <point x="1434" y="78" type="line" name="hr00"/>
      <point x="1302" y="232" type="line"/>
      <point x="1448" y="408"/>
      <point x="1518" y="546"/>
      <point x="1540" y="728" type="curve"/>
      <point x="1598" y="1198"/>
      <point x="1340" y="1484"/>
      <point x="962" y="1484" type="curve" smooth="yes"/>
      <point x="602" y="1484"/>
      <point x="252" y="1190"/>
      <point x="194" y="728" type="curve" smooth="yes"/>
      <point x="138" y="268"/>
      <point x="390" y="-28"/>
    </contour>
  </outline>
</glyph>
<glyph name="S" format="2">
  <advance width="1108"/>
  <unicode hex="0053"/>
  <anchor x="524" y="0" name="bottom"/>
  <anchor x="720" y="1454" name="top"/>
  <outline>
    <contour>
      <point x="530" y="-24" type="curve"/>
      <point x="834" y="-24"/>
      <point x="1028" y="164"/>
      <point x="1052" y="362" type="curve" smooth="yes"/>
      <point x="1108" y="816"/>
      <point x="428" y="804"/>
      <point x="466" y="1118" type="curve" smooth="yes"/>
      <point x="480" y="1234"/>
      <point x="574" y="1334"/>
      <point x="724" y="1334" type="curve" name="hr00"/>
      <point x="798" y="1334"/>
      <point x="898" y="1324"/>
      <point x="1008" y="1290" type="curve"/>
      <point x="1078" y="1420" type="line"/>
      <point x="946" y="1462"/>
      <point x="836" y="1480"/>
      <point x="722" y="1480" type="curve"/>
      <point x="482" y="1480"/>
      <point x="298" y="1318"/>
      <point x="274" y="1118" type="curve" smooth="yes"/>
      <point x="218" y="666"/>
      <point x="896" y="708"/>
      <point x="854" y="366" type="curve" smooth="yes"/>
      <point x="836" y="228"/>
      <point x="714" y="120"/>
      <point x="526" y="120" type="curve"/>
      <point x="434" y="120"/>
      <point x="306" y="142"/>
      <point x="194" y="196" type="curve"/>
      <point x="126" y="66" type="line"/>
      <point x="254" y="0"/>
      <point x="416" y="-24"/>
    </contour>
  </outline>
</glyph>
<glyph name="T" format="2">
  <advance width="1088"/>
  <unicode hex="0054"/>
  <anchor x="540" y="0" name="bottom"/>
  <anchor x="628" y="728" name="center"/>
  <anchor x="720" y="1454" name="top"/>
  <outline>
    <contour>
      <point x="444" y="0" type="line"/>
      <point x="636" y="0" type="line"/>
      <point x="796" y="1310" type="line"/>
      <point x="1222" y="1310" type="line"/>
      <point x="1240" y="1454" type="line"/>
      <point x="198" y="1454" type="line"/>
      <point x="180" y="1310" type="line" name="hr00"/>
      <point x="604" y="1310" type="line"/>
    </contour>
  </outline>
</glyph>
<glyph name="V" format="2">
  <advance width="1260"/>
  <unicode hex="0056"/>
  <anchor x="636" y="0" name="bottom"/>
  <anchor x="816" y="1454" name="top"/>
  <outline>
    <contour>
      <point x="536" y="0" type="line" name="hr00"/>
      <point x="736" y="0" type="line"/>
      <point x="1420" y="1454" type="line"/>
      <point x="1222" y="1454" type="line"/>
      <point x="684" y="258" type="line"/>
      <point x="660" y="194" type="line"/>
      <point x="654" y="260" type="line"/>
      <point x="410" y="1454" type="line"/>
      <point x="204" y="1454" type="line"/>
    </contour>
  </outline>
</glyph>
<glyph name="Y" format="2">
  <advance width="1320"/>
  <unicode hex="0059"/>
  <anchor x="648" y="0" name="bottom"/>
  <anchor x="816" y="1454" name="top"/>
  <anchor x="156" y="1454" name="topleft"/>
  <outline>
    <contour>
      <point x="554" y="0" type="line"/>
      <point x="740" y="0" type="line"/>
      <point x="822" y="674" type="line" name="hr00"/>
      <point x="450" y="1454" type="line"/>
      <point x="234" y="1454" type="line"/>
      <point x="628" y="618" type="line"/>
    </contour>
    <contour>
      <point x="888" y="752" type="curve"/>
      <point x="1402" y="1454" type="line"/>
      <point x="1192" y="1454" type="line"/>
      <point x="884" y="1004" type="line"/>
      <point x="818" y="910"/>
      <point x="846" y="814"/>
    </contour>
  </outline>
</glyph>
<glyph name="b" format="2">
  <advance width="1164"/>
  <unicode hex="0062"/>
  <anchor x="538" y="0" name="bottom"/>
  <anchor x="444" y="1516" name="top"/>
  <outline>
    <contour>
      <point x="550" y="-20" type="curve" smooth="yes"/>
      <point x="850" y="-20"/>
      <point x="1082" y="204"/>
      <point x="1122" y="522" type="curve" smooth="yes"/>
      <point x="1164" y="870"/>
      <point x="976" y="1056"/>
      <point x="758" y="1044" type="curve" smooth="yes"/>
      <point x="698" y="1042"/>
      <point x="610" y="1018"/>
      <point x="538" y="980" type="curve" name="hr00"/>
      <point x="576" y="920"/>
      <point x="626" y="890"/>
      <point x="686" y="896" type="curve" smooth="yes"/>
      <point x="856" y="916"/>
      <point x="958" y="786"/>
      <point x="926" y="522" type="curve" smooth="yes"/>
      <point x="896" y="286"/>
      <point x="758" y="124"/>
      <point x="568" y="124" type="curve" smooth="yes"/>
      <point x="508" y="124"/>
      <point x="432" y="132"/>
      <point x="370" y="156" type="curve"/>
      <point x="536" y="1502" type="line"/>
      <point x="352" y="1516" type="line"/>
      <point x="174" y="80" type="line"/>
      <point x="280" y="14"/>
      <point x="406" y="-20"/>
    </contour>
  </outline>
</glyph>
<glyph name="c" format="2">
  <advance width="854"/>
  <unicode hex="0063"/>
  <anchor x="496" y="0" name="bottom"/>
  <anchor x="626" y="1034" name="top"/>
  <outline>
    <contour>
      <point x="562" y="-20" type="curve" smooth="yes" name="hr00"/>
      <point x="624" y="-20"/>
      <point x="726" y="-4"/>
      <point x="842" y="50" type="curve"/>
      <point x="808" y="182" type="line"/>
      <point x="710" y="140"/>
      <point x="638" y="124"/>
      <point x="580" y="124" type="curve" smooth="yes"/>
      <point x="426" y="124"/>
      <point x="312" y="248"/>
      <point x="344" y="518" type="curve" smooth="yes"/>
      <point x="378" y="786"/>
      <point x="524" y="910"/>
      <point x="676" y="910" type="curve" smooth="yes"/>
      <point x="736" y="910"/>
      <point x="798" y="902"/>
      <point x="872" y="882" type="curve"/>
      <point x="934" y="1012" type="line"/>
      <point x="856" y="1042"/>
      <point x="766" y="1054"/>
      <point x="694" y="1054" type="curve" smooth="yes"/>
      <point x="436" y="1054"/>
      <point x="190" y="864"/>
      <point x="146" y="518" type="curve" smooth="yes"/>
      <point x="104" y="170"/>
      <point x="294" y="-20"/>
    </contour>
  </outline>
</glyph>
<glyph name="e" format="2">
  <advance width="1088"/>
  <unicode hex="0065"/>
  <anchor x="566" y="0" name="bottom"/>
  <anchor x="818" y="0" name="ogonek"/>
  <anchor x="698" y="1034" name="top"/>
  <outline>
    <contour>
      <point x="592" y="-20" type="curve" smooth="yes"/>
      <point x="688" y="-20"/>
      <point x="814" y="-2"/>
      <point x="950" y="64" type="curve"/>
      <point x="918" y="196" type="line"/>
      <point x="796" y="138"/>
      <point x="722" y="124"/>
      <point x="630" y="124" type="curve" smooth="yes"/>
      <point x="448" y="124"/>
      <point x="332" y="286"/>
      <point x="362" y="524" type="curve" smooth="yes"/>
      <point x="392" y="770"/>
      <point x="524" y="910"/>
      <point x="692" y="910" type="curve" smooth="yes"/>
      <point x="822" y="910"/>
      <point x="908" y="788"/>
      <point x="870" y="634" type="curve" name="hr00"/>
      <point x="616" y="634" type="line"/>
      <point x="520" y="634"/>
      <point x="468" y="576"/>
      <point x="430" y="500" type="curve"/>
      <point x="1010" y="500" type="line"/>
      <point x="1134" y="786"/>
      <point x="1004" y="1054"/>
      <point x="730" y="1054" type="curve" smooth="yes"/>
      <point x="428" y="1054"/>
      <point x="216" y="850"/>
      <point x="176" y="526" type="curve" smooth="yes"/>
      <point x="138" y="212"/>
      <point x="298" y="-20"/>
    </contour>
  </outline>
</glyph>
<glyph name="f" format="2">
  <advance width="780"/>
  <unicode hex="0066"/>
  <anchor x="270" y="0" name="bottom"/>
  <anchor x="752" y="1516" name="top"/>
  <outline>
    <contour>
      <point x="182" y="0" type="line"/>
      <point x="356" y="0" type="line"/>
      <point x="492" y="1110" type="line" smooth="yes"/>
      <point x="516" y="1310"/>
      <point x="646" y="1390"/>
      <point x="758" y="1390" type="curve" smooth="yes"/>
      <point x="800" y="1390"/>
      <point x="850" y="1384"/>
      <point x="932" y="1352" type="curve"/>
      <point x="988" y="1474" type="line"/>
      <point x="900" y="1514"/>
      <point x="818" y="1526"/>
      <point x="752" y="1526" type="curve" smooth="yes"/>
      <point x="508" y="1526"/>
      <point x="348" y="1354"/>
      <point x="314" y="1090" type="curve" smooth="yes"/>
      <point x="308" y="1034" type="line"/>
      <point x="130" y="992" type="line"/>
      <point x="120" y="896" type="line" name="hr00"/>
      <point x="292" y="896" type="line"/>
    </contour>
    <contour>
      <point x="538" y="896" type="curve"/>
      <point x="828" y="896" type="line"/>
      <point x="844" y="1034" type="line"/>
      <point x="724" y="1034" type="line"/>
      <point x="628" y="1034"/>
      <point x="574" y="972"/>
    </contour>
  </outline>
</glyph>
<glyph name="g" format="2">
  <advance width="1142"/>
  <unicode hex="0067"/>
  <anchor x="472" y="-482" name="bottom"/>
  <anchor x="732" y="1034" name="top"/>
  <outline>
    <contour>
      <point x="456" y="-500" type="curve" smooth="yes"/>
      <point x="748" y="-500"/>
      <point x="954" y="-298"/>
      <point x="992" y="0" type="curve"/>
      <point x="1112" y="990" type="line"/>
      <point x="980" y="1036"/>
      <point x="878" y="1054"/>
      <point x="766" y="1054" type="curve" smooth="yes"/>
      <point x="456" y="1054"/>
      <point x="210" y="838"/>
      <point x="170" y="512" type="curve" name="hr00"/>
      <point x="130" y="186"/>
      <point x="306" y="-44"/>
      <point x="544" y="-10" type="curve" smooth="yes"/>
      <point x="604" y="-2"/>
      <point x="680" y="26"/>
      <point x="748" y="74" type="curve"/>
      <point x="704" y="132"/>
      <point x="650" y="148"/>
      <point x="592" y="140" type="curve" smooth="yes"/>
      <point x="408" y="110"/>
      <point x="338" y="286"/>
      <point x="366" y="512" type="curve"/>
      <point x="398" y="768"/>
      <point x="548" y="910"/>
      <point x="748" y="910" type="curve" smooth="yes"/>
      <point x="808" y="910"/>
      <point x="858" y="904"/>
      <point x="918" y="888" type="curve"/>
      <point x="806" y="-22" type="line"/>
      <point x="778" y="-250"/>
      <point x="626" y="-356"/>
      <point x="458" y="-356" type="curve" smooth="yes"/>
      <point x="374" y="-356"/>
      <point x="280" y="-336"/>
      <point x="172" y="-280" type="curve"/>
      <point x="104" y="-416" type="line"/>
      <point x="228" y="-484"/>
      <point x="352" y="-500"/>
    </contour>
  </outline>
</glyph>
<glyph name="h" format="2">
  <advance width="1164"/>
  <unicode hex="0068"/>
  <anchor x="582" y="0" name="bottom"/>
  <anchor x="550" y="1280" name="center"/>
  <anchor x="444" y="1516" name="top"/>
  <outline>
    <contour>
      <point x="166" y="0" type="line" name="hr00"/>
      <point x="352" y="0" type="line"/>
      <point x="536" y="1502" type="line"/>
      <point x="352" y="1516" type="line"/>
    </contour>
    <contour>
      <point x="812" y="0" type="line"/>
      <point x="1004" y="0" type="line"/>
      <point x="1092" y="732" type="line" smooth="yes"/>
      <point x="1124" y="980"/>
      <point x="1006" y="1054"/>
      <point x="852" y="1054" type="curve" smooth="yes"/>
      <point x="778" y="1054"/>
      <point x="690" y="1032"/>
      <point x="538" y="948" type="curve"/>
      <point x="586" y="890"/>
      <point x="646" y="876"/>
      <point x="726" y="894" type="curve" smooth="yes"/>
      <point x="764" y="902"/>
      <point x="778" y="910"/>
      <point x="810" y="910" type="curve" smooth="yes"/>
      <point x="888" y="910"/>
      <point x="914" y="844"/>
      <point x="904" y="752" type="curve"/>
    </contour>
  </outline>
</glyph>
<glyph name="j" format="2">
  <advance width="558"/>
  <unicode hex="006A"/>
  <outline>
    <contour>
      <point x="-24" y="-496" type="line"/>
      <point x="298" y="-286"/>
      <point x="374" y="-134"/>
      <point x="400" y="78" type="curve"/>
      <point x="518" y="1034" type="line"/>
      <point x="328" y="1034" type="line" name="hr01"/>
      <point x="210" y="78" type="line" smooth="yes"/>
      <point x="188" y="-110"/>
      <point x="142" y="-202"/>
      <point x="-96" y="-390" type="curve"/>
    </contour>
    <contour>
      <point x="444" y="1214" type="curve" smooth="yes"/>
      <point x="516" y="1214"/>
      <point x="574" y="1264"/>
      <point x="582" y="1334" type="curve" smooth="yes"/>
      <point x="592" y="1406"/>
      <point x="546" y="1458"/>
      <point x="474" y="1458" type="curve" smooth="yes"/>
      <point x="404" y="1458"/>
      <point x="350" y="1406"/>
      <point x="340" y="1334" type="curve"/>
      <point x="332" y="1264"/>
      <point x="374" y="1214"/>
    </contour>
  </outline>
</glyph>
<glyph name="k" format="2">
  <advance width="1162"/>
  <unicode hex="006B"/>
  <anchor x="612" y="0" name="bottom"/>
  <anchor x="444" y="1516" name="top"/>
  <outline>
    <contour>
      <point x="902" y="0" type="line"/>
      <point x="1114" y="0" type="line"/>
      <point x="806" y="670" type="line"/>
      <point x="1166" y="1020" type="line"/>
      <point x="960" y="1034" type="line"/>
      <point x="588" y="656" type="line" smooth="yes"/>
      <point x="502" y="570"/>
      <point x="476" y="444"/>
      <point x="496" y="366" type="curve"/>
      <point x="636" y="504" type="line"/>
      <point x="672" y="540" type="line"/>
      <point x="690" y="498" type="line"/>
    </contour>
    <contour>
      <point x="166" y="0" type="line"/>
      <point x="352" y="0" type="line" name="hr00"/>
      <point x="536" y="1502" type="line"/>
      <point x="352" y="1516" type="line"/>
    </contour>
  </outline>
</glyph>
<glyph name="m" format="2">
  <advance width="1804"/>
  <unicode hex="006D"/>
  <anchor x="910" y="0" name="bottom"/>
  <anchor x="1032" y="1034" name="top"/>
  <outline>
    <contour>
      <point x="1456" y="0" type="line"/>
      <point x="1648" y="0" type="line"/>
      <point x="1736" y="732" type="line" smooth="yes"/>
      <point x="1768" y="980"/>
      <point x="1638" y="1054"/>
      <point x="1480" y="1054" type="curve" smooth="yes"/>
      <point x="1408" y="1054"/>
      <point x="1308" y="1032"/>
      <point x="1156" y="948" type="curve"/>
      <point x="1204" y="890"/>
      <point x="1268" y="876"/>
      <point x="1348" y="894" type="curve" smooth="yes"/>
      <point x="1386" y="902"/>
      <point x="1410" y="910"/>
      <point x="1442" y="910" type="curve" smooth="yes"/>
      <point x="1526" y="910"/>
      <point x="1558" y="844"/>
      <point x="1548" y="752" type="curve"/>
    </contour>
    <contour>
      <point x="170" y="0" type="line"/>
      <point x="362" y="0" type="line"/>
      <point x="460" y="814" type="line" smooth="yes"/>
      <point x="470" y="894"/>
      <point x="466" y="962"/>
      <point x="410" y="1034" type="curve"/>
      <point x="264" y="1024" type="line"/>
      <point x="274" y="930"/>
      <point x="272" y="846"/>
      <point x="264" y="772" type="curve" smooth="yes"/>
    </contour>
    <contour>
      <point x="814" y="0" type="line"/>
      <point x="1006" y="0" type="line"/>
      <point x="1094" y="732" type="line" smooth="yes"/>
      <point x="1126" y="980"/>
      <point x="1004" y="1054"/>
      <point x="848" y="1054" type="curve" smooth="yes"/>
      <point x="776" y="1054"/>
      <point x="684" y="1034"/>
      <point x="532" y="950" type="curve"/>
      <point x="580" y="892"/>
      <point x="640" y="878"/>
      <point x="722" y="896" type="curve" smooth="yes"/>
      <point x="756" y="904"/>
      <point x="776" y="910"/>
      <point x="808" y="910" type="curve" smooth="yes" name="hr01"/>
      <point x="886" y="910"/>
      <point x="916" y="844"/>
      <point x="906" y="752" type="curve"/>
    </contour>
  </outline>
</glyph>
<glyph name="n" format="2">
  <advance width="1192"/>
  <unicode hex="006E"/>
  <anchor x="594" y="0" name="bottom"/>
  <anchor x="726" y="1034" name="top"/>
  <outline>
    <contour>
      <point x="826" y="0" type="line"/>
      <point x="1018" y="0" type="line"/>
      <point x="1106" y="732" type="line" smooth="yes"/>
      <point x="1138" y="980"/>
      <point x="1008" y="1054"/>
      <point x="848" y="1054" type="curve" smooth="yes"/>
      <point x="776" y="1054"/>
      <point x="684" y="1032"/>
      <point x="532" y="948" type="curve"/>
      <point x="580" y="890"/>
      <point x="644" y="876"/>
      <point x="724" y="894" type="curve" smooth="yes"/>
      <point x="760" y="902"/>
      <point x="780" y="910"/>
      <point x="812" y="910" type="curve" smooth="yes" name="hr01"/>
      <point x="894" y="910"/>
      <point x="928" y="844"/>
      <point x="918" y="752" type="curve"/>
    </contour>
    <contour>
      <point x="170" y="0" type="line"/>
      <point x="362" y="0" type="line"/>
      <point x="460" y="814" type="line" smooth="yes"/>
      <point x="470" y="894"/>
      <point x="466" y="962"/>
      <point x="410" y="1034" type="curve"/>
      <point x="264" y="1024" type="line"/>
      <point x="274" y="930"/>
      <point x="272" y="846"/>
      <point x="264" y="772" type="curve" smooth="yes"/>
    </contour>
  </outline>
</glyph>
<glyph name="s" format="2">
  <advance width="832"/>
  <unicode hex="0073"/>
  <anchor x="398" y="0" name="bottom"/>
  <anchor x="558" y="1034" name="top"/>
  <outline>
    <contour>
      <point x="434" y="-20" type="curve" smooth="yes"/>
      <point x="610" y="-20"/>
      <point x="784" y="112"/>
      <point x="804" y="264" type="curve" smooth="yes"/>
      <point x="846" y="610"/>
      <point x="356" y="570"/>
      <point x="384" y="784" type="curve" smooth="yes"/>
      <point x="394" y="866"/>
      <point x="466" y="910"/>
      <point x="558" y="910" type="curve" smooth="yes"/>
      <point x="614" y="910"/>
      <point x="686" y="898"/>
      <point x="766" y="870" type="curve"/>
      <point x="828" y="1000" type="line"/>
      <point x="720" y="1040"/>
      <point x="632" y="1052"/>
      <point x="556" y="1052" type="curve" smooth="yes"/>
      <point x="348" y="1052"/>
      <point x="218" y="912"/>
      <point x="204" y="784" type="curve" smooth="yes"/>
      <point x="162" y="450"/>
      <point x="652" y="492"/>
      <point x="624" y="274" type="curve" smooth="yes"/>
      <point x="614" y="186"/>
      <point x="548" y="124"/>
      <point x="428" y="124" type="curve" smooth="yes"/>
      <point x="344" y="124"/>
      <point x="238" y="146"/>
      <point x="144" y="196" type="curve" name="hr00"/>
      <point x="78" y="64" type="line"/>
      <point x="226" y="-12"/>
      <point x="332" y="-20"/>
    </contour>
  </outline>
</glyph>
<glyph name="w" format="2">
  <advance width="1720"/>
  <unicode hex="0077"/>
  <anchor x="878" y="0" name="bottom"/>
  <anchor x="976" y="1034" name="top"/>
  <outline>
    <contour>
      <point x="1114" y="0" type="line"/>
      <point x="1314" y="0" type="line"/>
      <point x="1798" y="1020" type="line"/>
      <point x="1614" y="1034" type="line"/>
      <point x="1260" y="228" type="line"/>
      <point x="1240" y="178" type="line"/>
      <point x="1232" y="228" type="line"/>
      <point x="1076" y="1034" type="line"/>
      <point x="876" y="1034" type="line"/>
    </contour>
    <contour>
      <point x="452" y="0" type="line"/>
      <point x="642" y="0" type="line" name="hr00"/>
      <point x="846" y="380" type="line"/>
      <point x="906" y="506"/>
      <point x="890" y="650"/>
      <point x="838" y="716" type="curve"/>
      <point x="596" y="228" type="line"/>
      <point x="576" y="178" type="line"/>
      <point x="568" y="228" type="line"/>
      <point x="412" y="1034" type="line"/>
      <point x="212" y="1034" type="line"/>
    </contour>
  </outline>
</glyph>
<glyph name="x" format="2">
  <advance width="998"/>
  <unicode hex="0078"/>
  <anchor x="488" y="0" name="bottom"/>
  <anchor x="628" y="1034" name="top"/>
  <outline>
    <contour>
      <point x="738" y="0" type="curve" name="hr00"/>
      <point x="946" y="0" type="line"/>
      <point x="650" y="526" type="line"/>
      <point x="1040" y="1020" type="line"/>
      <point x="856" y="1034" type="line"/>
      <point x="594" y="676" type="line"/>
      <point x="574" y="634" type="line"/>
      <point x="568" y="676" type="line"/>
      <point x="398" y="1034" type="line"/>
      <point x="188" y="1034" type="line"/>
      <point x="466" y="518" type="line"/>
      <point x="560" y="344"/>
      <point x="648" y="174"/>
    </contour>
    <contour>
      <point x="44" y="0" type="line"/>
      <point x="238" y="0" type="line"/>
      <point x="398" y="208" type="line"/>
      <point x="464" y="292"/>
      <point x="452" y="386"/>
      <point x="406" y="450" type="curve"/>
    </contour>
  </outline>
</glyph>
<glyph name="asciitilde" format="2">
  <advance width="1228"/>
  <unicode hex="007E"/>
  <outline>
    <contour>
      <point x="340" y="456" type="line"/>
      <point x="362" y="568"/>
      <point x="420" y="626"/>
      <point x="484" y="628" type="curve" smooth="yes" name="hr02"/>
      <point x="566" y="628"/>
      <point x="618" y="588"/>
      <point x="678" y="544" type="curve" smooth="yes"/>
      <point x="734" y="500"/>
      <point x="812" y="458"/>
      <point x="902" y="460" type="curve" smooth="yes"/>
      <point x="1062" y="462"/>
      <point x="1188" y="526"/>
      <point x="1230" y="752" type="curve"/>
      <point x="1070" y="768" type="line" name="hr01"/>
      <point x="1050" y="668"/>
      <point x="1004" y="596"/>
      <point x="940" y="596" type="curve" smooth="yes"/>
      <point x="850" y="596"/>
      <point x="794" y="636"/>
      <point x="736" y="680" type="curve" smooth="yes"/>
      <point x="680" y="724"/>
      <point x="604" y="764"/>
      <point x="518" y="764" type="curve" smooth="yes"/>
      <point x="346" y="762"/>
      <point x="216" y="672"/>
      <point x="182" y="472" type="curve"/>
    </contour>
  </outline>
</glyph>
<glyph name="cent" format="2">
  <advance width="854"/>
  <unicode hex="00A2"/>
  <outline>
    <contour>
      <point x="480" y="-28" type="line"/>
      <point x="624" y="-28" type="line"/>
      <point x="648" y="174" type="line"/>
      <point x="708" y="182"/>
      <point x="782" y="200"/>
      <point x="864" y="240" type="curve" name="hr00"/>
      <point x="830" y="372" type="line"/>
      <point x="734" y="330"/>
      <point x="662" y="314"/>
      <point x="604" y="314" type="curve" smooth="yes"/>
      <point x="450" y="314"/>
      <point x="334" y="438"/>
      <point x="368" y="708" type="curve" smooth="yes"/>
      <point x="400" y="976"/>
      <point x="548" y="1100"/>
      <point x="700" y="1100" type="curve" smooth="yes"/>
      <point x="760" y="1100"/>
      <point x="822" y="1092"/>
      <point x="890" y="1070" type="curve"/>
      <point x="956" y="1202" type="line"/>
      <point x="902" y="1224"/>
      <point x="836" y="1236"/>
      <point x="780" y="1242" type="curve"/>
      <point x="802" y="1432" type="line"/>
      <point x="658" y="1432" type="line"/>
      <point x="634" y="1236" type="line"/>
      <point x="408" y="1200"/>
      <point x="208" y="1016"/>
      <point x="170" y="708" type="curve" smooth="yes"/>
      <point x="132" y="396"/>
      <point x="278" y="210"/>
      <point x="504" y="176" type="curve"/>
    </contour>
  </outline>
</glyph>
<glyph name="sterling" format="2">
  <advance width="1026"/>
  <unicode hex="00A3"/>
  <outline>
    <contour>
      <point x="112" y="0" type="line"/>
      <point x="966" y="0" type="line"/>
      <point x="984" y="160" type="line"/>
      <point x="426" y="160" type="line"/>
      <point x="372" y="156" type="line"/>
      <point x="418" y="192" type="line"/>
      <point x="482" y="250"/>
      <point x="530" y="316"/>
      <point x="560" y="394" type="curve" name="hr00"/>
      <point x="624" y="592"/>
      <point x="572" y="780"/>
      <point x="602" y="1022" type="curve" smooth="yes"/>
      <point x="622" y="1174"/>
      <point x="710" y="1280"/>
      <point x="858" y="1280" type="curve" smooth="yes"/>
      <point x="914" y="1280"/>
      <point x="1010" y="1264"/>
      <point x="1102" y="1216" type="curve"/>
      <point x="1168" y="1350" type="line"/>
      <point x="1062" y="1404"/>
      <point x="970" y="1424"/>
      <point x="876" y="1424" type="curve"/>
      <point x="656" y="1424"/>
      <point x="458" y="1278"/>
      <point x="426" y="1024" type="curve" smooth="yes"/>
      <point x="416" y="940"/>
      <point x="416" y="836"/>
      <point x="420" y="772" type="curve"/>
      <point x="248" y="772" type="line"/>
      <point x="232" y="642" type="line"/>
      <point x="424" y="642" type="line"/>
      <point x="426" y="586"/>
      <point x="422" y="536"/>
      <point x="416" y="484" type="curve" smooth="yes"/>
      <point x="396" y="324"/>
      <point x="278" y="194"/>
      <point x="126" y="122" type="curve"/>
    </contour>
    <contour>
      <point x="820" y="642" type="curve"/>
      <point x="968" y="642" type="line"/>
      <point x="984" y="772" type="line"/>
      <point x="666" y="772" type="line"/>
      <point x="684" y="696"/>
      <point x="724" y="642"/>
    </contour>
  </outline>
</glyph>
<glyph name="yen" format="2">
  <advance width="1320"/>
  <unicode hex="00A5"/>
  <outline>
    <contour>
      <point x="554" y="0" type="line"/>
      <point x="740" y="0" type="line"/>
      <point x="772" y="276" type="line"/>
      <point x="1104" y="276" type="line"/>
      <point x="1116" y="370" type="line"/>
      <point x="784" y="370" type="line"/>
      <point x="804" y="520" type="line"/>
      <point x="1136" y="520" type="line"/>
      <point x="1146" y="614" type="line"/>
      <point x="814" y="614" type="line"/>
      <point x="822" y="674" type="line"/>
      <point x="450" y="1454" type="line"/>
      <point x="234" y="1454" type="line"/>
      <point x="628" y="618" type="line"/>
      <point x="628" y="614" type="line"/>
      <point x="296" y="614" type="line" name="hr00"/>
      <point x="286" y="520" type="line"/>
      <point x="618" y="520" type="line"/>
      <point x="598" y="370" type="line"/>
      <point x="266" y="370" type="line"/>
      <point x="254" y="276" type="line"/>
      <point x="586" y="276" type="line"/>
    </contour>
    <contour>
      <point x="888" y="752" type="curve"/>
      <point x="1402" y="1454" type="line"/>
      <point x="1192" y="1454" type="line"/>
      <point x="884" y="1004" type="line"/>
      <point x="818" y="910"/>
      <point x="846" y="814"/>
    </contour>
  </outline>
</glyph>
<glyph name="section" format="2">
  <advance width="1000"/>
  <unicode hex="00A7"/>
  <outline>
    <contour>
      <point x="498" y="-102" type="curve" smooth="yes"/>
      <point x="708" y="-102"/>
      <point x="894" y="14"/>
      <point x="916" y="184" type="curve" smooth="yes"/>
      <point x="928" y="284"/>
      <point x="886" y="352"/>
      <point x="818" y="402" type="curve"/>
      <point x="778" y="420" type="line"/>
      <point x="826" y="438" type="line"/>
      <point x="914" y="486"/>
      <point x="982" y="560"/>
      <point x="992" y="650" type="curve" smooth="yes"/>
      <point x="1036" y="996"/>
      <point x="430" y="956"/>
      <point x="456" y="1172" type="curve" smooth="yes"/>
      <point x="466" y="1254"/>
      <point x="552" y="1298"/>
      <point x="682" y="1298" type="curve" smooth="yes"/>
      <point x="748" y="1298"/>
      <point x="832" y="1286"/>
      <point x="932" y="1258" type="curve"/>
      <point x="1002" y="1388" type="line"/>
      <point x="872" y="1428"/>
      <point x="766" y="1440"/>
      <point x="676" y="1440" type="curve" smooth="yes"/>
      <point x="446" y="1440"/>
      <point x="292" y="1300"/>
      <point x="276" y="1170" type="curve" smooth="yes"/>
      <point x="264" y="1068"/>
      <point x="312" y="1002"/>
      <point x="386" y="952" type="curve"/>
      <point x="426" y="934" type="line"/>
      <point x="372" y="914" type="line"/>
      <point x="266" y="858"/>
      <point x="208" y="778"/>
      <point x="200" y="704" type="curve" smooth="yes"/>
      <point x="158" y="370"/>
      <point x="764" y="412"/>
      <point x="736" y="194" type="curve" smooth="yes"/>
      <point x="726" y="104"/>
      <point x="648" y="42"/>
      <point x="486" y="42" type="curve" smooth="yes"/>
      <point x="386" y="42"/>
      <point x="258" y="64"/>
      <point x="142" y="114" type="curve" name="hr00"/>
      <point x="68" y="-18" type="line"/>
      <point x="248" y="-94"/>
      <point x="374" y="-102"/>
    </contour>
    <contour>
      <point x="670" y="484" type="curve"/>
      <point x="518" y="550"/>
      <point x="356" y="592"/>
      <point x="370" y="706" type="curve" smooth="yes"/>
      <point x="378" y="774"/>
      <point x="444" y="834"/>
      <point x="544" y="872" type="curve"/>
      <point x="688" y="812"/>
      <point x="838" y="768"/>
      <point x="824" y="660" type="curve" smooth="yes"/>
      <point x="816" y="598"/>
      <point x="768" y="536"/>
    </contour>
  </outline>
</glyph>
<glyph name="ordfeminine" format="2">
  <advance width="1054"/>
  <unicode hex="00AA"/>
  <outline>
    <contour>
      <point x="400" y="590" type="curve" smooth="yes"/>
      <point x="466" y="590"/>
      <point x="524" y="604"/>
      <point x="604" y="676" type="curve"/>
      <point x="622" y="700" type="line"/>
      <point x="620" y="676" type="line"/>
      <point x="628" y="646"/>
      <point x="638" y="620"/>
      <point x="664" y="604" type="curve"/>
      <point x="764" y="604" type="line"/>
      <point x="758" y="654"/>
      <point x="756" y="732"/>
      <point x="770" y="844" type="curve" name="hr00"/>
      <point x="796" y="1044" type="line"/>
      <point x="818" y="1232"/>
      <point x="722" y="1342"/>
      <point x="544" y="1342" type="curve" smooth="yes"/>
      <point x="482" y="1342"/>
      <point x="412" y="1334"/>
      <point x="318" y="1294" type="curve"/>
      <point x="338" y="1202" type="line"/>
      <point x="408" y="1226"/>
      <point x="454" y="1236"/>
      <point x="504" y="1236" type="curve" smooth="yes"/>
      <point x="632" y="1236"/>
      <point x="672" y="1164"/>
      <point x="658" y="1054" type="curve"/>
      <point x="626" y="798" type="line"/>
      <point x="564" y="726"/>
      <point x="492" y="696"/>
      <point x="430" y="696" type="curve" smooth="yes"/>
      <point x="358" y="696"/>
      <point x="324" y="740"/>
      <point x="330" y="798" type="curve" smooth="yes"/>
      <point x="338" y="850"/>
      <point x="366" y="898"/>
      <point x="492" y="918" type="curve" smooth="yes"/>
      <point x="566" y="928"/>
      <point x="596" y="998"/>
      <point x="606" y="1030" type="curve"/>
      <point x="314" y="998"/>
      <point x="204" y="930"/>
      <point x="186" y="788" type="curve" smooth="yes"/>
      <point x="172" y="676"/>
      <point x="254" y="590"/>
    </contour>
  </outline>
</glyph>
<glyph name="registered" format="2">
  <advance width="1440"/>
  <unicode hex="00AE"/>
  <outline>
    <contour>
      <point x="720" y="62" type="curve" smooth="yes"/>
      <point x="1104" y="62"/>
      <point x="1400" y="352"/>
      <point x="1444" y="714" type="curve" smooth="yes"/>
      <point x="1488" y="1070"/>
      <point x="1264" y="1360"/>
      <point x="880" y="1360" type="curve" name="hr00"/>
      <point x="492" y="1360"/>
      <point x="194" y="1070"/>
      <point x="150" y="714" type="curve" smooth="yes"/>
      <point x="106" y="352"/>
      <point x="332" y="62"/>
    </contour>
    <contour>
      <point x="734" y="178" type="curve"/>
      <point x="434" y="180"/>
      <point x="256" y="394"/>
      <point x="294" y="708" type="curve" smooth="yes"/>
      <point x="332" y="1026"/>
      <point x="564" y="1244"/>
      <point x="866" y="1246" type="curve"/>
      <point x="1162" y="1246"/>
      <point x="1338" y="1026"/>
      <point x="1300" y="714" type="curve" smooth="yes"/>
      <point x="1262" y="394"/>
      <point x="1030" y="174"/>
    </contour>
    <contour>
      <point x="548" y="378" type="line"/>
      <point x="672" y="378" type="line"/>
      <point x="744" y="968" type="line"/>
      <point x="780" y="972"/>
      <point x="802" y="974"/>
      <point x="826" y="974" type="curve" smooth="yes"/>
      <point x="906" y="974"/>
      <point x="958" y="922"/>
      <point x="950" y="862" type="curve" smooth="yes"/>
      <point x="944" y="810"/>
      <point x="902" y="762"/>
      <point x="856" y="754" type="curve" smooth="yes"/>
      <point x="796" y="746"/>
      <point x="772" y="698"/>
      <point x="752" y="666" type="curve"/>
      <point x="786" y="666"/>
      <point x="772" y="666"/>
      <point x="806" y="668" type="curve"/>
      <point x="898" y="630"/>
      <point x="874" y="486"/>
      <point x="912" y="378" type="curve"/>
      <point x="1044" y="378" type="line"/>
      <point x="1002" y="500"/>
      <point x="1022" y="620"/>
      <point x="948" y="680" type="curve"/>
      <point x="934" y="690" type="line"/>
      <point x="948" y="696" type="line"/>
      <point x="1018" y="730"/>
      <point x="1070" y="786"/>
      <point x="1080" y="862" type="curve"/>
      <point x="1096" y="992"/>
      <point x="990" y="1072"/>
      <point x="838" y="1072" type="curve" smooth="yes"/>
      <point x="768" y="1072"/>
      <point x="708" y="1064"/>
      <point x="630" y="1046" type="curve"/>
    </contour>
  </outline>
</glyph>
<glyph name="threesuperior" format="2">
  <advance width="762"/>
  <unicode hex="00B3"/>
  <outline>
    <contour>
      <point x="388" y="602" type="curve" smooth="yes"/>
      <point x="572" y="602"/>
      <point x="710" y="726"/>
      <point x="728" y="864" type="curve" smooth="yes"/>
      <point x="742" y="984"/>
      <point x="660" y="1054"/>
      <point x="572" y="1076" type="curve"/>
      <point x="668" y="1118"/>
      <point x="740" y="1196"/>
      <point x="750" y="1280" type="curve" smooth="yes"/>
      <point x="764" y="1390"/>
      <point x="678" y="1470"/>
      <point x="532" y="1470" type="curve" smooth="yes"/>
      <point x="466" y="1470"/>
      <point x="394" y="1460"/>
      <point x="316" y="1420" type="curve"/>
      <point x="350" y="1326" type="line"/>
      <point x="406" y="1348"/>
      <point x="460" y="1360"/>
      <point x="506" y="1360" type="curve" smooth="yes" name="hr01"/>
      <point x="578" y="1360"/>
      <point x="616" y="1320"/>
      <point x="608" y="1262" type="curve"/>
      <point x="600" y="1192"/>
      <point x="526" y="1152"/>
      <point x="450" y="1122" type="curve" smooth="yes"/>
      <point x="384" y="1096" type="line"/>
      <point x="384" y="1008" type="line"/>
      <point x="520" y="1008"/>
      <point x="600" y="966"/>
      <point x="588" y="866" type="curve" smooth="yes"/>
      <point x="578" y="790"/>
      <point x="510" y="712"/>
      <point x="400" y="712" type="curve" smooth="yes"/>
      <point x="324" y="712"/>
      <point x="282" y="732"/>
      <point x="238" y="752" type="curve"/>
      <point x="190" y="658" type="line"/>
      <point x="226" y="634"/>
      <point x="296" y="602"/>
    </contour>
  </outline>
</glyph>
<glyph name="onesuperior" format="2">
  <advance width="638"/>
  <unicode hex="00B9"/>
  <outline>
    <contour>
      <point x="438" y="618" type="line" name="hr00"/>
      <point x="576" y="618" type="line"/>
      <point x="680" y="1454" type="line"/>
      <point x="614" y="1454" type="line"/>
      <point x="348" y="1320" type="line"/>
      <point x="390" y="1226" type="line"/>
      <point x="522" y="1290" type="line"/>
    </contour>
  </outline>
</glyph>
<glyph name="ordmasculine" format="2">
  <advance width="860"/>
  <unicode hex="00BA"/>
  <outline>
    <contour>
      <point x="500" y="588" type="curve" name="hr00"/>
      <point x="696" y="588"/>
      <point x="856" y="734"/>
      <point x="884" y="966" type="curve"/>
      <point x="914" y="1218"/>
      <point x="772" y="1342"/>
      <point x="592" y="1342" type="curve"/>
      <point x="382" y="1342"/>
      <point x="234" y="1174"/>
      <point x="208" y="966" type="curve"/>
      <point x="180" y="736"/>
      <point x="298" y="588"/>
    </contour>
    <contour>
      <point x="512" y="698" type="curve"/>
      <point x="402" y="698"/>
      <point x="332" y="788"/>
      <point x="354" y="966" type="curve"/>
      <point x="370" y="1104"/>
      <point x="448" y="1234"/>
      <point x="578" y="1234" type="curve"/>
      <point x="724" y="1234"/>
      <point x="756" y="1094"/>
      <point x="740" y="966" type="curve"/>
      <point x="722" y="824"/>
      <point x="640" y="698"/>
    </contour>
  </outline>
</glyph>
<glyph name="questiondown" format="2">
  <advance width="1166"/>
  <unicode hex="00BF"/>
  <outline>
    <contour>
      <point x="548" y="-440" type="curve" smooth="yes" name="hr00"/>
      <point x="658" y="-440"/>
      <point x="766" y="-424"/>
      <point x="898" y="-358" type="curve"/>
      <point x="864" y="-224" type="line"/>
      <point x="750" y="-282"/>
      <point x="662" y="-296"/>
      <point x="586" y="-296" type="curve"/>
      <point x="462" y="-296"/>
      <point x="384" y="-216"/>
      <point x="398" y="-110" type="curve" smooth="yes"/>
      <point x="430" y="158"/>
      <point x="776" y="230"/>
      <point x="828" y="664" type="curve"/>
      <point x="684" y="664" type="line"/>
      <point x="640" y="298"/>
      <point x="238" y="194"/>
      <point x="198" y="-140" type="curve" smooth="yes"/>
      <point x="178" y="-308"/>
      <point x="318" y="-440"/>
    </contour>
    <contour>
      <point x="778" y="824" type="curve" smooth="yes"/>
      <point x="846" y="824"/>
      <point x="904" y="876"/>
      <point x="914" y="946" type="curve" smooth="yes"/>
      <point x="922" y="1014"/>
      <point x="876" y="1064"/>
      <point x="808" y="1064" type="curve" smooth="yes"/>
      <point x="738" y="1064"/>
      <point x="680" y="1014"/>
      <point x="672" y="946" type="curve" smooth="yes"/>
      <point x="662" y="876"/>
      <point x="708" y="824"/>
    </contour>
  </outline>
</glyph>
<glyph name="AE" format="2">
  <advance width="1950"/>
  <unicode hex="00C6"/>
  <anchor x="940" y="0" name="bottom"/>
  <anchor x="1120" y="1454" name="top"/>
  <outline>
    <contour>
      <point x="42" y="0" type="line"/>
      <point x="240" y="0" type="line"/>
      <point x="456" y="348" type="line"/>
      <point x="978" y="348" type="line"/>
      <point x="960" y="424"/>
      <point x="922" y="492"/>
      <point x="826" y="492" type="curve" smooth="yes"/>
      <point x="570" y="492" type="line"/>
      <point x="532" y="488" type="line"/>
      <point x="566" y="530" type="line"/>
      <point x="990" y="1210" type="line"/>
      <point x="1030" y="1290" type="line"/>
      <point x="1024" y="1210" type="line" name="hr00"/>
      <point x="1066" y="0" type="line"/>
      <point x="1828" y="0" type="line"/>
      <point x="1844" y="144" type="line"/>
      <point x="1236" y="144" type="line"/>
      <point x="1200" y="1310" type="line"/>
      <point x="1848" y="1310" type="line"/>
      <point x="1866" y="1454" type="line"/>
      <point x="958" y="1454" type="line"/>
    </contour>
    <contour>
      <point x="1288" y="692" type="curve"/>
      <point x="1792" y="692" type="line"/>
      <point x="1810" y="832" type="line"/>
      <point x="1470" y="832" type="line"/>
      <point x="1374" y="832"/>
      <point x="1322" y="768"/>
    </contour>
  </outline>
</glyph>
<glyph name="multiply" format="2">
  <advance width="1136"/>
  <unicode hex="00D7"/>
  <outline>
    <contour>
      <point x="216" y="158" type="line"/>
      <point x="624" y="520" type="line"/>
      <point x="942" y="158" type="line"/>
      <point x="1044" y="248" type="line"/>
      <point x="726" y="612" type="line"/>
      <point x="1128" y="972" type="line"/>
      <point x="1050" y="1062" type="line"/>
      <point x="648" y="702" type="line"/>
      <point x="330" y="1062" type="line"/>
      <point x="226" y="972" type="line"/>
      <point x="544" y="612" type="line"/>
      <point x="138" y="248" type="line" name="hr00"/>
    </contour>
  </outline>
</glyph>
<glyph name="Thorn" format="2">
  <advance width="1218"/>
  <unicode hex="00DE"/>
  <anchor x="276" y="0" name="bottom"/>
  <anchor x="454" y="1454" name="top"/>
  <outline>
    <contour>
      <point x="184" y="0" type="line"/>
      <point x="368" y="0" type="line"/>
      <point x="490" y="1008" type="line"/>
      <point x="564" y="1016"/>
      <point x="638" y="1020"/>
      <point x="712" y="1020" type="curve" smooth="yes"/>
      <point x="892" y="1020"/>
      <point x="1022" y="894"/>
      <point x="1002" y="726" type="curve" smooth="yes"/>
      <point x="982" y="556"/>
      <point x="814" y="434"/>
      <point x="676" y="434" type="curve" smooth="yes"/>
      <point x="592" y="434"/>
      <point x="524" y="380"/>
      <point x="486" y="312" type="curve"/>
      <point x="556" y="292"/>
      <point x="624" y="290"/>
      <point x="684" y="296" type="curve" smooth="yes"/>
      <point x="926" y="316"/>
      <point x="1172" y="470"/>
      <point x="1204" y="726" type="curve" smooth="yes" name="hr00"/>
      <point x="1234" y="968"/>
      <point x="1052" y="1166"/>
      <point x="730" y="1166" type="curve" smooth="yes"/>
      <point x="650" y="1166"/>
      <point x="580" y="1162"/>
      <point x="508" y="1154" type="curve"/>
      <point x="546" y="1454" type="line"/>
      <point x="362" y="1454" type="line"/>
    </contour>
  </outline>
</glyph>
<glyph name="divide" format="2">
  <advance width="1136"/>
  <unicode hex="00F7"/>
  <outline>
    <contour>
      <point x="160" y="546" type="line"/>
      <point x="1096" y="546" type="line"/>
      <point x="1112" y="674" type="line"/>
      <point x="176" y="674" type="line" name="hr00"/>
    </contour>
    <contour>
      <point x="574" y="124" type="curve" smooth="yes"/>
      <point x="634" y="124"/>
      <point x="684" y="166"/>
      <point x="690" y="224" type="curve" smooth="yes"/>
      <point x="698" y="284"/>
      <point x="660" y="328"/>
      <point x="600" y="328" type="curve" smooth="yes"/>
      <point x="542" y="328"/>
      <point x="494" y="284"/>
      <point x="486" y="224" type="curve" smooth="yes"/>
      <point x="480" y="166"/>
      <point x="516" y="124"/>
    </contour>
    <contour>
      <point x="668" y="888" type="curve" smooth="yes"/>
      <point x="728" y="888"/>
      <point x="778" y="930"/>
      <point x="784" y="988" type="curve" smooth="yes"/>
      <point x="792" y="1048"/>
      <point x="754" y="1092"/>
      <point x="694" y="1092" type="curve" smooth="yes"/>
      <point x="636" y="1092"/>
      <point x="588" y="1048"/>
      <point x="580" y="988" type="curve" smooth="yes"/>
      <point x="574" y="930"/>
      <point x="610" y="888"/>
    </contour>
  </outline>
</glyph>
<glyph name="OE" format="2">
  <advance width="1976"/>
  <unicode hex="0152"/>
  <anchor x="1094" y="0" name="bottom"/>
  <anchor x="1272" y="1454" name="top"/>
  <outline>
    <contour>
      <point x="760" y="-28" type="curve"/>
      <point x="826" y="-28"/>
      <point x="952" y="0"/>
      <point x="1060" y="0" type="curve"/>
      <point x="1858" y="0" type="line"/>
      <point x="1874" y="144" type="line"/>
      <point x="1206" y="144" type="line"/>
      <point x="1350" y="1310" type="line"/>
      <point x="1988" y="1310" type="line"/>
      <point x="2006" y="1454" type="line"/>
      <point x="1238" y="1454" type="line" name="hr01"/>
      <point x="1138" y="1454"/>
      <point x="1022" y="1484"/>
      <point x="946" y="1484" type="curve" smooth="yes"/>
      <point x="586" y="1484"/>
      <point x="236" y="1190"/>
      <point x="178" y="728" type="curve" smooth="yes"/>
      <point x="120" y="256"/>
      <point x="386" y="-28"/>
    </contour>
    <contour>
      <point x="778" y="116" type="curve" smooth="yes"/>
      <point x="522" y="116"/>
      <point x="336" y="348"/>
      <point x="382" y="728" type="curve" smooth="yes"/>
      <point x="428" y="1104"/>
      <point x="670" y="1338"/>
      <point x="928" y="1338" type="curve"/>
      <point x="996" y="1338"/>
      <point x="1088" y="1324"/>
      <point x="1158" y="1300" type="curve"/>
      <point x="1018" y="154" type="line"/>
      <point x="930" y="126"/>
      <point x="846" y="116"/>
    </contour>
    <contour>
      <point x="1350" y="692" type="curve"/>
      <point x="1844" y="692" type="line"/>
      <point x="1862" y="832" type="line"/>
      <point x="1540" y="832" type="line"/>
      <point x="1444" y="832"/>
      <point x="1388" y="768"/>
    </contour>
  </outline>
</glyph>
<glyph name="circumflexcomb" format="2">
  <unicode hex="0302"/>
  <anchor x="404" y="1034" name="_top"/>
  <anchor x="476" y="1486" name="top"/>
  <outline>
    <contour>
      <point x="260" y="1178" type="line"/>
      <point x="456" y="1348" type="line"/>
      <point x="612" y="1180" type="line"/>
      <point x="718" y="1196" type="line"/>
      <point x="532" y="1486" type="line" name="hr00"/>
      <point x="418" y="1486" type="line"/>
      <point x="164" y="1196" type="line"/>
    </contour>
  </outline>
</glyph>
<glyph name="tildecomb" format="2">
  <unicode hex="0303"/>
  <anchor x="440" y="1034" name="_top"/>
  <anchor x="494" y="1468" name="top"/>
  <outline>
    <contour>
      <point x="278" y="1236" type="line" name="hr02"/>
      <point x="296" y="1320"/>
      <point x="330" y="1352"/>
      <point x="364" y="1352" type="curve" smooth="yes"/>
      <point x="410" y="1352"/>
      <point x="424" y="1318"/>
      <point x="458" y="1286" type="curve" smooth="yes"/>
      <point x="488" y="1254"/>
      <point x="532" y="1240"/>
      <point x="584" y="1240" type="curve" smooth="yes"/>
      <point x="660" y="1240"/>
      <point x="750" y="1288"/>
      <point x="778" y="1456" type="curve"/>
      <point x="674" y="1468" type="line" name="hr01"/>
      <point x="658" y="1394"/>
      <point x="634" y="1352"/>
      <point x="598" y="1352" type="curve" smooth="yes"/>
      <point x="546" y="1352"/>
      <point x="528" y="1384"/>
      <point x="496" y="1416" type="curve" smooth="yes"/>
      <point x="464" y="1448"/>
      <point x="422" y="1464"/>
      <point x="374" y="1464" type="curve" smooth="yes"/>
      <point x="278" y="1462"/>
      <point x="192" y="1398"/>
      <point x="170" y="1248" type="curve"/>
    </contour>
  </outline>
</glyph>
<glyph name="macroncomb" format="2">
  <unicode hex="0304"/>
  <anchor x="436" y="1034" name="_top"/>
  <anchor x="476" y="1354" name="top"/>
  <outline>
    <contour>
      <point x="168" y="1226" type="line" name="hr00"/>
      <point x="752" y="1226" type="line"/>
      <point x="768" y="1354" type="line"/>
      <point x="184" y="1354" type="line"/>
    </contour>
  </outline>
</glyph>
<glyph name="dieresiscomb" format="2">
  <unicode hex="0308"/>
  <anchor x="444" y="1034" name="_top"/>
  <anchor x="494" y="1444" name="top"/>
  <outline>
    <contour>
      <point x="272" y="1236" type="curve" smooth="yes"/>
      <point x="330" y="1236"/>
      <point x="384" y="1282"/>
      <point x="392" y="1340" type="curve" smooth="yes"/>
      <point x="398" y="1398"/>
      <point x="356" y="1444"/>
      <point x="298" y="1444" type="curve" smooth="yes"/>
      <point x="242" y="1444"/>
      <point x="188" y="1398"/>
      <point x="182" y="1340" type="curve" smooth="yes" name="hr00"/>
      <point x="174" y="1282"/>
      <point x="216" y="1236"/>
    </contour>
    <contour>
      <point x="662" y="1236" type="curve" smooth="yes"/>
      <point x="718" y="1236"/>
      <point x="772" y="1282"/>
      <point x="780" y="1340" type="curve" smooth="yes"/>
      <point x="786" y="1398"/>
      <point x="744" y="1444"/>
      <point x="688" y="1444" type="curve" smooth="yes"/>
      <point x="630" y="1444"/>
      <point x="576" y="1398"/>
      <point x="570" y="1340" type="curve" smooth="yes"/>
      <point x="562" y="1282"/>
      <point x="604" y="1236"/>
    </contour>
  </outline>
</glyph>
<glyph name="strokeshortcomb" format="2">
  <unicode hex="0335"/>
  <anchor x="508" y="712" name="_center"/>
  <outline>
    <contour>
      <point x="920" y="776" type="line"/>
      <point x="112" y="776" type="line"/>
      <point x="96" y="646" type="line"/>
      <point x="904" y="646" type="line"/>
    </contour>
  </outline>
</glyph>
<glyph name="slashlongcomb" format="2">
  <unicode hex="0338"/>
  <anchor x="534" y="508" name="_center"/>
  <outline>
    <contour>
      <point x="402" y="218" type="curve"/>
      <point x="1066" y="1146" type="line"/>
      <point x="918" y="1146" type="line"/>
      <point x="398" y="424" type="line"/>
      <point x="356" y="360"/>
      <point x="362" y="270"/>
    </contour>
    <contour>
      <point x="0" y="-132" type="line"/>
      <point x="154" y="-132" type="line" name="hr01"/>
      <point x="282" y="48" type="line"/>
      <point x="178" y="120" type="line"/>
    </contour>
  </outline>
</glyph>
<glyph name="emdash" format="2">
  <advance width="1698"/>
  <unicode hex="2014"/>
  <outline>
    <contour>
      <point x="148" y="486" type="line" name="hr00"/>
      <point x="1626" y="486" type="line"/>
      <point x="1642" y="614" type="line"/>
      <point x="164" y="614" type="line"/>
    </contour>
  </outline>
</glyph>
<glyph name="daggerdbl" format="2">
  <advance width="1222"/>
  <unicode hex="2021"/>
  <outline>
    <contour>
      <point x="514" y="-60" type="line"/>
      <point x="662" y="-60" type="line" name="hr00"/>
      <point x="840" y="1394" type="line"/>
      <point x="692" y="1394" type="line"/>
    </contour>
    <contour>
      <point x="132" y="342" type="line"/>
      <point x="322" y="342" type="line"/>
      <point x="418" y="342"/>
      <point x="472" y="404"/>
      <point x="510" y="480" type="curve"/>
      <point x="150" y="480" type="line"/>
    </contour>
    <contour>
      <point x="196" y="854" type="line"/>
      <point x="386" y="854" type="line"/>
      <point x="482" y="854"/>
      <point x="536" y="916"/>
      <point x="572" y="992" type="curve"/>
      <point x="212" y="992" type="line"/>
    </contour>
    <contour>
      <point x="950" y="342" type="curve"/>
      <point x="1140" y="342" type="line"/>
      <point x="1158" y="480" type="line"/>
      <point x="798" y="480" type="line"/>
      <point x="816" y="404"/>
      <point x="854" y="342"/>
    </contour>
    <contour>
      <point x="1014" y="854" type="curve"/>
      <point x="1204" y="854" type="line"/>
      <point x="1220" y="992" type="line"/>
      <point x="860" y="992" type="line"/>
      <point x="880" y="916"/>
      <point x="918" y="854"/>
    </contour>
  </outline>
</glyph>
<glyph name="bullet" format="2">
  <advance width="1000"/>
  <unicode hex="2022"/>
  <outline>
    <contour>
      <point x="572" y="482" type="curve" smooth="yes"/>
      <point x="658" y="482"/>
      <point x="732" y="544"/>
      <point x="742" y="630" type="curve" smooth="yes"/>
      <point x="752" y="716"/>
      <point x="696" y="782"/>
      <point x="610" y="782" type="curve" smooth="yes"/>
      <point x="524" y="782"/>
      <point x="452" y="716"/>
      <point x="442" y="630" type="curve" smooth="yes" name="hr00"/>
      <point x="432" y="544"/>
      <point x="486" y="482"/>
    </contour>
  </outline>
</glyph>
<glyph name="guilsinglright" format="2">
  <advance width="1226"/>
  <unicode hex="203A"/>
  <outline>
    <contour>
      <point x="494" y="100" type="line" name="hr00"/>
      <point x="976" y="516" type="line"/>
      <point x="596" y="932" type="line"/>
      <point x="496" y="846" type="line"/>
      <point x="744" y="516" type="line"/>
      <point x="416" y="186" type="line"/>
    </contour>
  </outline>
</glyph>
<glyph name="euro" format="2">
  <advance width="1180"/>
  <unicode hex="20AC"/>
  <outline>
    <contour>
      <point x="704" y="-20" type="curve" smooth="yes"/>
      <point x="816" y="-20"/>
      <point x="912" y="-2"/>
      <point x="1034" y="42" type="curve"/>
      <point x="998" y="176" type="line"/>
      <point x="886" y="136"/>
      <point x="816" y="124"/>
      <point x="722" y="124" type="curve" smooth="yes"/>
      <point x="552" y="124"/>
      <point x="424" y="250"/>
      <point x="390" y="468" type="curve"/>
      <point x="386" y="498" type="line"/>
      <point x="420" y="498" type="line"/>
      <point x="924" y="498" type="line"/>
      <point x="940" y="628" type="line"/>
      <point x="382" y="628" type="line"/>
      <point x="382" y="650"/>
      <point x="386" y="676"/>
      <point x="388" y="700" type="curve" smooth="yes"/>
      <point x="432" y="1058"/>
      <point x="640" y="1284"/>
      <point x="864" y="1284" type="curve" smooth="yes"/>
      <point x="944" y="1284"/>
      <point x="1022" y="1276"/>
      <point x="1128" y="1234" type="curve"/>
      <point x="1196" y="1366" type="line"/>
      <point x="1074" y="1414"/>
      <point x="994" y="1428"/>
      <point x="882" y="1428" type="curve" smooth="yes"/>
      <point x="600" y="1428"/>
      <point x="370" y="1236"/>
      <point x="262" y="932" type="curve"/>
      <point x="98" y="932" type="line"/>
      <point x="82" y="802" type="line"/>
      <point x="226" y="802" type="line"/>
      <point x="218" y="768"/>
      <point x="214" y="736"/>
      <point x="208" y="700" type="curve" smooth="yes"/>
      <point x="206" y="676"/>
      <point x="202" y="650"/>
      <point x="202" y="628" type="curve"/>
      <point x="60" y="628" type="line" name="hr00"/>
      <point x="44" y="498" type="line"/>
      <point x="204" y="498" type="line"/>
      <point x="232" y="180"/>
      <point x="414" y="-20"/>
    </contour>
    <contour>
      <point x="482" y="802" type="curve"/>
      <point x="962" y="802" type="line"/>
      <point x="978" y="932" type="line"/>
      <point x="666" y="932" type="line"/>
      <point x="572" y="932"/>
      <point x="516" y="878"/>
    </contour>
  </outline>
</glyph>
<glyph name="trademark" format="2">
  <advance width="1456"/>
  <unicode hex="2122"/>
  <outline>
    <contour>
      <point x="716" y="858" type="line"/>
      <point x="824" y="858" type="line"/>
      <point x="922" y="1304" type="line"/>
      <point x="928" y="1342" type="line"/>
      <point x="936" y="1304" type="line"/>
      <point x="1032" y="868" type="line"/>
      <point x="1136" y="868" type="line"/>
      <point x="1338" y="1302" type="line"/>
      <point x="1356" y="1342" type="line"/>
      <point x="1350" y="1302" type="line"/>
      <point x="1342" y="858" type="line"/>
      <point x="1440" y="858" type="line"/>
      <point x="1448" y="1456" type="line"/>
      <point x="1310" y="1456" type="line"/>
      <point x="1108" y="1020" type="line"/>
      <point x="1098" y="992" type="line"/>
      <point x="1096" y="1020" type="line"/>
      <point x="1004" y="1456" type="line"/>
      <point x="856" y="1456" type="line"/>
    </contour>
    <contour>
      <point x="340" y="858" type="line"/>
      <point x="450" y="858" type="line"/>
      <point x="514" y="1376" type="line"/>
      <point x="698" y="1376" type="line"/>
      <point x="708" y="1456" type="line"/>
      <point x="230" y="1456" type="line"/>
      <point x="220" y="1376" type="line" name="hr00"/>
      <point x="404" y="1376" type="line"/>
    </contour>
  </outline>
</glyph>
<glyph name="gravecomb.case" format="2">
  <anchor x="426" y="1454" name="_top"/>
  <anchor x="464" y="1780" name="top"/>
  <outline>
    <contour>
      <point x="542" y="1532" type="curve"/>
      <point x="424" y="1780" type="line"/>
      <point x="236" y="1780" type="line"/>
      <point x="358" y="1584" type="line"/>
      <point x="394" y="1526"/>
      <point x="472" y="1516"/>
    </contour>
  </outline>
</glyph>
<glyph name="slashlongcomb.case" format="2">
  <anchor x="678" y="730" name="_center"/>
  <outline>
    <contour>
      <point x="418" y="266" type="curve"/>
      <point x="1354" y="1578" type="line"/>
      <point x="1196" y="1578" type="line"/>
      <point x="408" y="480" type="line"/>
      <point x="356" y="404"/>
      <point x="378" y="318"/>
    </contour>
    <contour>
      <point x="2" y="-120" type="line"/>
      <point x="160" y="-120" type="line" name="hr01"/>
      <point x="296" y="74" type="line"/>
      <point x="194" y="150" type="line"/>
    </contour>
  </outline>
</glyph>
